<svg width="96" height="96" viewBox="0 0 96 96" fill="none" xmlns="http://www.w3.org/2000/svg">
<rect width="96" height="96" rx="22" fill="#0F1B2E"/>
<path d="M20 32L48 16L76 32L67 70L48 82L29 70L20 32Z" fill="#FACC15"/>
<path d="M34 39C37 35 42 33 48 33C55 33 61 36 64 42" stroke="#111827" stroke-width="4" stroke-linecap="round"/>
<circle cx="38" cy="47" r="4" fill="#111827"/>
<circle cx="58" cy="47" r="4" fill="#111827"/>
<path d="M42 62C46 65 51 65 55 62" stroke="#111827" stroke-width="4" stroke-linecap="round"/>
<path d="M27 34L16 28M69 34L80 28M32 73L24 84M64 73L72 84" stroke="#60A5FA" stroke-width="3" stroke-linecap="round"/>
</svg>